<svg width="30" height="24" viewBox="0 0 30 24" fill="none" xmlns="http://www.w3.org/2000/svg">
<g id="Communication">
<g id="bubble.left.and.bubble.right.fill">
<g id="Group">
<path id="Vector" d="M6.85407 21.8202C7.27574 21.8202 7.58772 21.6229 8.08875 21.1592L10.934 18.5383C10.3806 18.0828 9.895 17.3244 9.895 15.7522V8.722C9.895 5.57237 11.8284 3.6655 14.9862 3.6655H22.1965L22.1882 3.35712C22.0105 1.34939 20.6725 0.00622559 18.2927 0.00622559H4.34693C1.94545 0.00622559 0.428711 1.40946 0.428711 3.85895V13.909C0.428711 16.3185 1.92376 17.8192 4.28183 17.8192H5.89681V20.7378C5.89681 21.3902 6.25541 21.8202 6.85407 21.8202Z" fill="#0063FD"/>
<path id="Vector_2" d="M23.7009 23.2553C24.3079 23.2553 24.6564 22.8337 24.6564 22.1729V19.2626H25.7066C28.0647 19.2626 29.5597 17.7619 29.5597 15.3424V8.9785C29.5597 6.53546 28.0412 5.13403 25.6398 5.13403H15.2733C12.784 5.13403 11.3633 6.53004 11.3633 9.0175V15.3424C11.3633 17.78 12.7876 19.2626 15.2733 19.2626H18.775L22.4644 22.6027C22.9673 23.0563 23.2774 23.2553 23.7009 23.2553Z" fill="#0063FD"/>
</g>
</g>
</g>
</svg>
