<svg width="16" height="16" viewBox="0 0 16 16" fill="none" xmlns="http://www.w3.org/2000/svg">
<g id="Group 3">
<path id="Vector" d="M8.00003 16C12.3391 16 16 12.3717 16 7.99721C16 3.60724 12.39 0 8.00003 0C3.61995 0 0 3.61998 0 7.99721C0 12.3971 3.61995 16 8.00003 16Z" fill="#0063FD"/>
<path id="Vector_2" d="M8.00003 13C7.36854 13 6.95871 12.5902 6.95871 11.9614V9.03853H4.04136C3.42522 9.03853 3.00282 8.62593 3.00005 7.99721C2.99453 7.36574 3.41971 6.95589 4.04136 6.95589H6.95871V4.04138C6.95871 3.42523 7.36854 3.00281 8.00003 3.00006C8.62875 2.99442 9.04134 3.41973 9.04134 4.04138V6.95589H11.9614C12.5748 6.95589 13 7.36574 13 7.99721C13 8.62593 12.5748 9.03853 11.9614 9.03853H9.04134V11.9614C9.04134 12.5902 8.62875 13 8.00003 13Z" fill="white"/>
</g>
</svg>
