<svg width="25" height="24" viewBox="0 0 25 24" fill="none" xmlns="http://www.w3.org/2000/svg">
<g id="Home">
<g id="house.fill">
<g id="Group">
<path id="Vector" d="M14.8875 19.499H9.61954V12.9788C9.61954 12.5095 9.93454 12.2045 10.4038 12.2045H14.1133C14.5826 12.2045 14.8875 12.5095 14.8875 12.9788V19.499ZM3.24783 19.1512C3.24783 20.5944 4.15486 21.4669 5.64166 21.4669H18.8883C20.3751 21.4669 21.2721 20.5944 21.2721 19.1512V11.4978L12.8817 4.4595C12.4909 4.13084 12.0262 4.13907 11.6438 4.4595L3.24783 11.4978V19.1512ZM0 10.1263C0 10.6448 0.390131 11.0871 1.02656 11.0871C1.33854 11.0871 1.61657 10.9257 1.86186 10.7241L11.8388 2.35354C12.1086 2.11468 12.425 2.11468 12.6966 2.35354L22.6682 10.7241C22.907 10.9257 23.185 11.0871 23.497 11.0871C24.074 11.0871 24.5153 10.7289 24.5153 10.151C24.5153 9.81171 24.3842 9.54934 24.1299 9.3324L13.6752 0.54512C12.8162 -0.181707 11.7275 -0.181707 10.8603 0.54512L0.393747 9.3342C0.131181 9.55294 0 9.84643 0 10.1263ZM18.4689 5.26169L21.3065 7.64969V2.80115C21.3065 2.34834 21.018 2.05986 20.5652 2.05986H19.212C18.7674 2.05986 18.4689 2.34834 18.4689 2.80115V5.26169Z" fill="#0063FD"/>
</g>
</g>
</g>
</svg>
