<svg width="26" height="24" viewBox="0 0 26 24" fill="none" xmlns="http://www.w3.org/2000/svg">
<g id="Human">
<g id="shared.with.you">
<g id="Group">
<path id="Vector" d="M7.9556 21.8175H19.0007C19.9317 21.8175 20.4929 21.3786 20.4929 20.6468C20.4929 18.5072 17.7831 15.5649 13.4832 15.5649C9.17324 15.5649 6.46338 18.5072 6.46338 20.6468C6.46338 21.3786 7.02467 21.8175 7.9556 21.8175ZM13.4832 14.0956C15.2872 14.0956 16.8258 12.4868 16.8258 10.4086C16.8258 8.37138 15.2854 6.81668 13.4832 6.81668C11.6792 6.81668 10.1287 8.3979 10.1305 10.4251C10.1323 12.4868 11.6774 14.0956 13.4832 14.0956Z" fill="#0063FD"/>
<path id="Vector_2" d="M1.58668 17.7095H3.6609C4.60429 17.7095 5.10452 17.2193 5.10452 16.2878V14.1615C5.10452 13.2364 4.60429 12.7462 3.6609 12.7462H1.58668C0.643289 12.7462 0.143066 13.2282 0.143066 14.1615V16.2878C0.143066 17.2193 0.643289 17.7095 1.58668 17.7095ZM4.30557 10.3596H8.67057C8.69145 7.71388 10.6678 5.54384 13.162 5.36665V3.98491C13.162 3.0598 12.6617 2.57143 11.71 2.57143H4.30557C3.36217 2.57143 2.86195 3.0598 2.86195 3.98491V8.94615C2.86195 9.8795 3.36217 10.3596 4.30557 10.3596ZM20.7858 15.7666H23.8086C24.7603 15.7666 25.2605 15.2783 25.2605 14.3532V8.40676C25.2605 7.48165 24.7603 6.99328 23.8086 6.99328H20.7858C19.8442 6.99328 19.344 7.48165 19.344 8.40676V14.3532C19.344 15.2783 19.8442 15.7666 20.7858 15.7666Z" fill="#0063FD"/>
</g>
</g>
</g>
</svg>
